Coordinates
version=1
nRows=17
nColumns=23
inDegrees=yes

Units are S.I. units (second, meters, Newtons, ...)
Angles are in degrees.

endheader
time	pelvis_tilt	pelvis_list	pelvis_rotation	pelvis_tx	pelvis_ty	pelvis_tz	hip_flexion_r	hip_adduction_r	hip_rotation_r	knee_angle_r	knee_angle_r_beta	ankle_angle_r	subtalar_angle_r	mtp_angle_r	hip_flexion_l	hip_adduction_l	hip_rotation_l	knee_angle_l	knee_angle_l_beta	ankle_angle_l	subtalar_angle_l	mtp_angle_l
    122.00000000	     -5.84707110	     -2.12265684	      1.28271188	      0.05648470	      1.25098650	      0.23744718	     62.17994984	     -4.09963700	     -0.62797896	     72.52987839	      1.26588518	      7.65918142	      0.00000000	      0.00000000	     43.92695773	     -5.28748552	      3.44042385	     85.85368397	      1.49842946	      6.52966496	      0.00000000	      0.00000000
    122.00888900	     -5.69057548	     -1.15557308	      1.87844372	      0.05663035	      1.25086041	      0.23814651	     59.97105740	     -5.07626418	     -0.50446797	     69.16960580	      1.20723736	      7.30578684	      0.00000000	      0.00000000	     45.13031326	     -4.19424254	      3.43603058	     88.94402780	      1.55236614	      7.08528744	      0.00000000	      0.00000000
    122.01777800	     -5.51724676	     -0.34212628	      2.45241478	      0.05676597	      1.25086675	      0.23878049	     57.64235029	     -6.01144574	     -0.69099617	     65.73645915	      1.14731765	      6.61941704	      0.00000000	      0.00000000	     46.41649694	     -3.29660530	      3.37447393	     91.98290552	      1.60540456	      7.65019501	      0.00000000	      0.00000000
    122.02666700	     -5.53045079	      0.61527693	      3.01453917	      0.05689639	      1.25075760	      0.23942354	     55.51069455	     -7.06219771	     -0.81724080	     62.36469025	      1.08846918	      5.90618261	      0.00000000	      0.00000000	     47.92966246	     -2.27987082	      3.17110475	     94.83144676	      1.65512098	      8.04882503	      0.00000000	      0.00000000
    122.03555600	     -5.57474336	      1.38614296	      3.57758123	      0.05699242	      1.25067987	      0.23999921	     53.34660059	     -8.01248157	     -1.21710977	     58.94842820	      1.02884416	      4.74184906	      0.00000000	      0.00000000	     49.57640797	     -1.43116935	      3.06697073	     97.63115452	      1.70398510	      8.46811417	      0.00000000	      0.00000000
    122.04444400	     -5.71132830	      2.16472306	      4.10051753	      0.05705360	      1.25058762	      0.24063918	     51.28738562	     -8.93705130	     -1.64747569	     55.60692334	      0.97052390	      3.42252946	      0.00000000	      0.00000000	     51.37629056	     -0.63391967	      2.84029695	    100.26447302	      1.74994518	      8.76873089	      0.00000000	      0.00000000
    122.05333300	     -5.93461372	      2.89363490	      4.60162086	      0.05711180	      1.25046145	      0.24123611	     49.33626933	     -9.81674888	     -2.16406953	     52.36760543	      0.91398714	      1.92794543	      0.00000000	      0.00000000	     53.32243869	      0.09110551	      2.57626241	    102.74070116	      1.79316351	      9.03296498	      0.00000000	      0.00000000
    122.06222200	     -6.23902476	      3.56748445	      5.09584816	      0.05716892	      1.25024724	      0.24186726	     47.50401373	    -10.63755943	     -2.74533639	     49.27046917	      0.85993191	      0.30200818	      0.00000000	      0.00000000	     55.40821038	      0.74017414	      2.27807253	    105.06032622	      1.83364861	      9.30789667	      0.00000000	      0.00000000
    122.07111100	     -6.58121079	      4.17273395	      5.54416318	      0.05721654	      1.25000903	      0.24250183	     45.76833486	    -11.35841977	     -3.35890573	     46.34400280	      0.80885544	     -1.43205836	      0.00000000	      0.00000000	     57.57159752	      1.27712183	      1.94442615	    107.21164988	      1.87119629	      9.53925173	      0.00000000	      0.00000000
    122.08000000	     -6.96528186	      4.69750944	      5.98517853	      0.05728392	      1.24969898	      0.24312114	     44.14358187	    -11.99563127	     -4.01598491	     43.63618932	      0.76159518	     -3.22972857	      0.00000000	      0.00000000	     59.81229663	      1.73292712	      1.61551967	    109.18741348	      1.90567987	      9.80054135	      0.00000000	      0.00000000
    122.08888900	     -7.39179490	      5.20663772	      6.41536606	      0.05738261	      1.24928355	      0.24375876	     42.66773167	    -12.59711669	     -4.63180601	     41.23338649	      0.71965836	     -4.83685177	      0.00000000	      0.00000000	     62.09327631	      2.14210336	      1.22885467	    110.94215988	      1.93630597	     10.08963448	      0.00000000	      0.00000000
    122.09777800	     -7.79965446	      5.61290909	      6.79352864	      0.05745987	      1.24884805	      0.24444588	     41.27961902	    -13.04680385	     -5.18310105	     39.10788011	      0.68256127	     -6.43017056	      0.00000000	      0.00000000	     64.36337436	      2.42582515	      0.87212343	    112.49241080	      1.96336295	     10.30918382	      0.00000000	      0.00000000
    122.10666700	     -8.21345153	      5.97339638	      7.15413057	      0.05754095	      1.24834064	      0.24507462	     40.02954209	    -13.44240273	     -5.66866051	     37.34165632	      0.65173485	     -7.78758570	      0.00000000	      0.00000000	     66.61398446	      2.66299363	      0.50415159	    113.80263230	      1.98623063	     10.54198722	      0.00000000	      0.00000000
    122.11555600	     -8.48967219	      6.51748987	      7.40684354	      0.05754706	      1.24807369	      0.24593210	     38.81840953	    -13.89420139	     -5.75794410	     36.06223695	      0.62940477	     -8.13767496	      0.00000000	      0.00000000	     68.59391511	      2.88179536	     -0.10856726	    114.75704639	      2.00288830	     10.64508005	      0.00000000	      0.00000000
    122.12444400	     -8.99735869	      6.51418329	      7.80615002	      0.05766547	      1.24725514	      0.24612442	     37.92742996	    -14.02247449	     -6.34231293	     34.96343177	      0.61022700	     -9.74285075	      0.00000000	      0.00000000	     70.93403364	      3.01771845	     -0.17839529	    115.65705040	      2.01859633	     10.92829818	      0.00000000	      0.00000000
    122.13333300	     -9.33723702	      6.73596459	      8.13457890	      0.05773556	      1.24681876	      0.24648526	     37.04028580	    -14.28244505	     -6.55737547	     34.37249890	      0.59991328	    -10.21288175	      0.00000000	      0.00000000	     72.90592717	      3.21262375	     -0.51129083	    116.13866078	      2.02700202	     11.08606080	      0.00000000	      0.00000000
    122.14222200	     -9.21874488	      7.01447008	      8.21158754	      0.05727241	      1.24670800	      0.24714683	     35.97685767	    -14.40992797	     -6.40914137	     34.35381586	      0.59958720	    -10.24672946	      0.00000000	      0.00000000	     74.31510789	      3.21868319	     -0.92863038	    116.38791793	      2.03135238	     11.05654918	      0.00000000	      0.00000000
